<svg id="svg" version="1.1" width="400" height="338.65814696485626" viewBox="0 0 400 338.65814696485626" xmlns="http://www.w3.org/2000/svg" xmlns:xlink="http://www.w3.org/1999/xlink" ><g id="svgg"><path id="path0" d="M61.981 14.733 C 61.981 27.369,61.927 28.789,61.442 28.789 C 61.145 28.789,60.822 29.094,60.725 29.467 C 60.627 29.839,60.337 30.144,60.079 30.144 C 59.821 30.144,59.610 30.449,59.610 30.821 C 59.610 31.488,59.385 31.499,45.555 31.499 L 31.499 31.499 31.499 45.555 C 31.499 59.385,31.488 59.610,30.821 59.610 C 30.445 59.610,30.144 59.836,30.144 60.119 C 30.144 60.398,29.901 60.627,29.604 60.627 C 29.307 60.627,28.985 60.931,28.887 61.304 C 28.714 61.968,28.425 61.981,14.694 61.981 L 0.677 61.981 0.677 106.689 L 0.677 151.397 15.399 151.397 C 29.659 151.397,30.131 151.376,30.474 150.735 C 30.716 150.284,30.825 135.980,30.817 105.773 L 30.806 61.473 45.039 61.385 C 54.138 61.328,59.272 61.176,59.272 60.962 C 59.272 60.777,59.577 60.627,59.949 60.627 C 60.401 60.627,60.627 60.401,60.627 59.949 C 60.627 59.577,60.777 59.272,60.962 59.272 C 61.176 59.272,61.328 54.138,61.385 45.039 L 61.473 30.807 106.650 30.818 C 139.824 30.826,151.950 30.727,152.289 30.445 C 152.667 30.131,152.752 27.371,152.752 15.369 L 152.752 0.677 107.367 0.677 L 61.981 0.677 61.981 14.733 M246.232 14.733 C 246.232 28.563,246.221 28.789,245.555 28.789 C 245.103 28.789,244.877 29.015,244.877 29.467 C 244.877 29.918,244.651 30.144,244.200 30.144 C 243.748 30.144,243.522 30.370,243.522 30.821 C 243.522 31.488,243.297 31.499,229.467 31.499 L 215.411 31.499 215.411 45.555 C 215.411 59.385,215.400 59.610,214.733 59.610 C 214.357 59.610,214.056 59.836,214.056 60.119 C 214.056 60.398,213.813 60.627,213.516 60.627 C 213.219 60.627,212.897 60.931,212.799 61.304 C 212.626 61.967,212.337 61.981,199.283 61.981 C 186.170 61.981,185.944 61.970,185.944 61.304 C 185.944 60.791,185.718 60.627,185.013 60.626 L 184.081 60.626 184.186 75.952 C 184.252 85.463,184.419 91.407,184.627 91.617 C 185.039 92.034,213.867 92.089,214.282 91.674 C 214.437 91.519,214.607 84.624,214.659 76.351 L 214.754 61.311 229.900 61.223 L 245.047 61.135 245.135 45.978 C 245.203 34.195,245.316 30.821,245.643 30.818 C 245.874 30.816,266.203 30.817,290.818 30.821 C 315.434 30.825,335.819 30.734,336.119 30.619 C 336.608 30.431,336.664 28.896,336.664 15.544 L 336.664 0.677 291.448 0.677 L 246.232 0.677 246.232 14.733 M153.429 45.344 C 153.429 57.777,153.513 60.614,153.892 60.928 C 154.224 61.203,158.394 61.287,168.710 61.223 L 183.065 61.135 183.153 46.317 L 183.242 31.499 169.182 31.499 C 155.349 31.499,155.123 31.488,155.123 30.821 C 155.123 30.325,154.897 30.144,154.276 30.144 L 153.429 30.144 153.429 45.344 M337.341 44.855 C 337.341 53.636,337.475 59.918,337.673 60.439 L 338.005 61.311 352.660 61.223 L 367.316 61.135 367.404 46.317 L 367.492 31.499 353.433 31.499 C 339.599 31.499,339.373 31.488,339.373 30.821 C 339.373 30.294,339.148 30.144,338.357 30.144 L 337.341 30.144 337.341 44.855 M368.163 105.927 L 368.332 151.228 382.642 151.316 C 396.781 151.403,396.952 151.396,396.952 150.723 C 396.952 150.344,397.177 150.042,397.460 150.042 C 397.909 150.042,397.968 144.924,397.968 106.012 L 397.968 61.981 383.912 61.981 C 370.082 61.981,369.856 61.970,369.856 61.304 C 369.856 60.791,369.630 60.627,368.925 60.627 L 367.993 60.627 368.163 105.927 M31.499 167.824 L 31.499 182.218 46.196 182.218 C 59.285 182.218,60.915 182.160,61.098 181.683 C 61.518 180.590,61.328 154.266,60.898 153.836 C 60.594 153.532,56.818 153.429,45.995 153.429 L 31.499 153.429 31.499 167.824 M338.312 153.655 C 338.007 153.736,337.664 154.271,337.549 154.844 C 337.182 156.679,337.311 180.852,337.692 181.563 C 338.251 182.608,366.130 182.586,366.130 181.541 C 366.130 181.089,366.356 180.864,366.808 180.864 C 367.474 180.864,367.485 180.638,367.485 167.146 L 367.485 153.429 353.175 153.469 C 345.305 153.490,338.616 153.574,338.312 153.655 M321.423 184.251 L 307.028 184.420 307.028 198.476 L 307.028 212.532 321.169 212.620 C 333.597 212.698,335.309 212.647,335.309 212.197 C 335.309 211.911,335.608 211.685,335.986 211.685 C 336.830 211.685,337.081 184.442,336.240 184.202 C 336.008 184.136,329.340 184.157,321.423 184.251 M61.981 198.476 L 61.981 212.701 76.844 212.701 L 91.708 212.701 91.912 211.939 C 92.259 210.643,92.152 186.058,91.795 185.119 L 91.465 184.251 76.723 184.251 L 61.981 184.251 61.981 198.476 M92.803 229.131 L 92.803 243.530 107.621 243.441 L 122.439 243.353 122.527 229.506 C 122.591 219.565,122.507 215.528,122.232 215.196 C 121.918 214.818,119.188 214.733,107.325 214.733 L 92.803 214.733 92.803 229.131 M277.003 214.960 C 276.697 215.042,276.356 215.443,276.246 215.852 C 275.981 216.839,275.979 242.298,276.243 242.987 C 276.604 243.927,304.826 243.787,304.826 242.845 C 304.826 242.393,305.052 242.168,305.504 242.168 C 306.170 242.168,306.181 241.942,306.181 228.450 L 306.181 214.733 291.871 214.773 C 284.001 214.794,277.310 214.879,277.003 214.960 M123.511 245.780 C 123.387 245.905,123.285 252.306,123.285 260.006 L 123.285 274.005 138.152 274.005 C 151.395 274.005,153.041 273.947,153.224 273.469 C 153.643 272.377,153.453 246.391,153.023 245.961 C 152.581 245.519,123.948 245.344,123.511 245.780 M245.780 245.780 C 245.656 245.905,245.555 252.306,245.555 260.006 L 245.555 274.005 259.780 274.005 C 272.199 274.005,274.005 273.941,274.005 273.497 C 274.005 273.215,274.306 272.989,274.682 272.989 C 275.349 272.989,275.360 272.763,275.360 259.272 L 275.360 245.555 260.683 245.555 C 252.611 245.555,245.905 245.656,245.780 245.780 M154.332 276.263 C 154.208 276.387,154.107 282.866,154.107 290.661 L 154.107 304.834 168.925 304.745 L 183.743 304.657 183.831 290.679 L 183.919 276.701 183.047 276.369 C 182.070 275.998,154.699 275.897,154.332 276.263 M215.869 276.272 C 215.468 276.350,215.051 276.748,214.942 277.157 C 214.677 278.143,214.675 303.602,214.939 304.291 C 215.300 305.231,243.522 305.091,243.522 304.149 C 243.522 303.697,243.748 303.472,244.200 303.472 C 244.866 303.472,244.877 303.246,244.877 289.754 L 244.877 276.037 230.737 276.083 C 222.959 276.109,216.269 276.194,215.869 276.272 M184.744 307.282 C 184.655 307.515,184.621 313.955,184.670 321.592 L 184.759 335.478 198.730 335.567 C 212.530 335.654,212.701 335.647,212.701 334.974 C 212.701 334.519,212.926 334.293,213.378 334.293 C 214.045 334.293,214.056 334.067,214.056 320.576 L 214.056 306.859 199.481 306.859 C 188.128 306.859,184.871 306.952,184.744 307.282 " stroke="none" fill="#000000" fill-rule="evenodd"></path><path id="path1" d="M152.242 30.486 C 152.101 30.714,136.901 30.825,106.752 30.818 L 61.473 30.807 61.385 45.039 L 61.297 59.272 91.783 59.272 L 122.269 59.272 122.269 60.627 C 122.269 61.605,122.410 61.981,122.777 61.981 C 123.221 61.981,123.285 63.769,123.285 76.037 C 123.285 88.306,123.221 90.093,122.777 90.093 C 122.498 90.093,122.269 90.380,122.269 90.731 C 122.269 91.084,121.967 91.448,121.592 91.546 C 121.219 91.643,120.914 91.966,120.914 92.263 C 120.914 92.748,119.494 92.803,106.859 92.803 L 92.803 92.803 92.803 106.859 C 92.803 120.689,92.792 120.914,92.125 120.914 C 91.674 120.914,91.448 121.140,91.448 121.592 C 91.448 122.043,91.222 122.269,90.771 122.269 C 90.394 122.269,90.093 122.495,90.093 122.777 C 90.093 123.221,88.306 123.285,76.037 123.285 C 63.769 123.285,61.981 123.221,61.981 122.777 C 61.981 122.410,61.605 122.269,60.627 122.269 L 59.272 122.269 59.272 91.783 L 59.272 61.297 45.042 61.385 L 30.811 61.473 30.694 106.012 C 30.629 130.508,30.465 151.253,30.330 152.112 C 30.108 153.517,30.154 153.692,30.791 153.858 C 31.180 153.960,31.499 153.905,31.499 153.736 C 31.499 153.187,60.473 153.344,60.931 153.896 C 61.361 154.414,61.254 180.580,60.812 183.065 L 60.571 184.420 76.012 184.319 L 91.452 184.219 91.800 185.133 C 92.190 186.158,92.033 211.211,91.622 213.630 C 91.384 215.029,92.331 216.318,92.726 215.133 C 92.944 214.479,121.710 214.568,122.255 215.225 C 122.563 215.596,122.636 219.381,122.551 230.720 L 122.439 245.724 137.540 245.623 C 150.295 245.538,152.705 245.598,153.043 246.006 C 153.490 246.543,153.388 272.280,152.930 274.934 C 152.666 276.460,153.352 277.266,154.197 276.421 C 154.700 275.918,181.756 275.878,183.073 276.379 L 183.971 276.720 183.857 292.128 C 183.745 307.228,183.833 308.696,184.759 307.197 C 184.893 306.980,190.181 306.859,199.512 306.859 C 208.982 306.859,214.056 306.740,214.056 306.520 C 214.056 306.334,214.378 306.181,214.773 306.181 C 215.396 306.181,215.453 306.060,215.212 305.250 C 214.846 304.021,214.820 276.853,215.185 276.489 C 215.340 276.334,222.084 276.162,230.172 276.108 C 239.272 276.048,244.877 275.886,244.877 275.685 C 244.877 275.506,245.068 275.360,245.301 275.360 C 245.633 275.360,245.724 272.171,245.724 260.542 L 245.724 245.724 260.542 245.636 C 270.030 245.579,275.360 245.427,275.360 245.212 C 275.360 245.028,275.682 244.877,276.077 244.877 C 276.700 244.877,276.757 244.756,276.516 243.946 C 276.150 242.717,276.124 215.549,276.489 215.185 C 276.644 215.030,283.388 214.860,291.476 214.808 C 300.679 214.748,306.181 214.590,306.181 214.384 C 306.181 214.204,306.372 214.056,306.605 214.056 C 306.938 214.056,307.006 210.964,306.923 199.444 C 306.866 191.408,306.947 184.705,307.103 184.548 C 307.260 184.392,313.975 184.255,322.026 184.244 C 331.139 184.231,336.664 184.101,336.664 183.898 C 336.664 183.720,336.986 183.573,337.380 183.573 C 338.017 183.573,338.066 183.452,337.826 182.472 C 337.465 180.998,337.434 154.240,337.793 153.881 C 337.948 153.726,344.692 153.556,352.780 153.504 C 361.983 153.444,367.485 153.286,367.485 153.080 C 367.485 152.900,367.790 152.752,368.163 152.752 C 368.881 152.752,369.133 151.618,368.501 151.228 C 368.278 151.090,368.163 135.651,368.163 106.012 C 368.163 64.185,368.079 59.730,367.319 60.960 C 367.180 61.184,362.046 61.304,352.554 61.304 L 338.002 61.304 337.672 60.435 C 337.475 59.919,337.341 53.581,337.341 44.819 C 337.341 30.889,337.308 30.088,336.749 30.362 C 336.423 30.521,315.885 30.689,291.109 30.734 C 266.334 30.779,245.874 30.818,245.643 30.819 C 245.316 30.821,245.203 34.195,245.135 45.978 L 245.047 61.135 229.900 61.223 L 214.754 61.311 214.659 76.351 C 214.607 84.624,214.437 91.519,214.282 91.674 C 213.865 92.091,186.252 92.226,185.175 91.816 L 184.289 91.479 184.185 76.250 C 184.084 61.412,183.994 60.070,183.161 60.903 C 182.582 61.482,154.415 61.477,153.836 60.898 C 153.532 60.594,153.429 56.668,153.429 45.318 C 153.429 29.980,153.329 28.727,152.242 30.486 " stroke="none" fill="#ff010c" fill-rule="evenodd"></path></g></svg>